<svg width="640" height="512" viewBox="0 0 640 512" fill="none" xmlns="http://www.w3.org/2000/svg">
<g clip-path="url(#clip0_9_18)">
<mask id="mask0_9_18" style="mask-type:luminance" maskUnits="userSpaceOnUse" x="32" y="0" width="576" height="512">
<path d="M608 0H32V512H608V0Z" fill="white"/>
</mask>
<g mask="url(#mask0_9_18)">
<path d="M320 32C239.2 32 174.5 68.8 127.4 112.6C80.6 156 49.3 208 34.5 243.7C31.2 251.6 31.2 260.4 34.5 268.3C49.3 304 80.6 356 127.4 399.4C174.5 443.2 239.2 480 320 480C400.8 480 465.5 443.2 512.6 399.4C559.4 355.9 590.7 304 605.6 268.3C608.9 260.4 608.9 251.6 605.6 243.7C590.7 208 559.4 156 512.6 112.6C465.5 68.8 400.8 32 320 32ZM176 256C176 217.809 191.171 181.182 218.177 154.177C245.182 127.171 281.809 112 320 112C358.191 112 394.818 127.171 421.823 154.177C448.829 181.182 464 217.809 464 256C464 294.191 448.829 330.818 421.823 357.823C394.818 384.829 358.191 400 320 400C281.809 400 245.182 384.829 218.177 357.823C191.171 330.818 176 294.191 176 256ZM320 192C320 227.3 291.3 256 256 256C248.9 256 242.1 254.8 235.7 252.7C230.2 250.9 223.8 254.3 224 260.1C224.3 267 225.3 273.9 227.2 280.8C240.9 332 293.6 362.4 344.8 348.7C396 335 426.4 282.3 412.7 231.1C401.6 189.6 364.9 161.7 324.1 160C318.3 159.8 314.9 166.1 316.7 171.7C318.8 178.1 320 184.9 320 192Z" fill="white"/>
</g>
</g>
<defs>
<clipPath id="clip0_9_18">
<rect width="576" height="512" fill="white" transform="translate(32)"/>
</clipPath>
</defs>
</svg>
