<svg width="576" height="512" viewBox="0 0 576 512" fill="none" xmlns="http://www.w3.org/2000/svg">
<path d="M88.7 223.8L0 375.8V96C0 60.7 28.7 32 64 32H181.5C198.5 32 214.8 38.7 226.8 50.7L253.3 77.2C265.3 89.2 281.6 95.9 298.6 95.9H416C451.3 95.9 480 124.6 480 159.9V191.9H144C121.2 191.9 100.2 204 88.7 223.7V223.8ZM116.3 239.9C122.1 230 132.6 224 144 224H544C555.5 224 566 230.1 571.7 240.1C577.4 250.1 577.4 262.3 571.6 272.2L459.6 464.2C453.9 474 443.4 480 432 480H32C20.5 480 10 473.9 4.3 463.9C-1.4 453.9 -1.4 441.7 4.4 431.8L116.4 239.8L116.3 239.9Z" fill="white"/>
</svg>
