<svg width="512" height="512" viewBox="0 0 512 512" fill="none" xmlns="http://www.w3.org/2000/svg">
<path d="M512 416C512 451.3 483.3 480 448 480H64C28.7 480 0 451.3 0 416V96C0 60.7 28.7 32 64 32H192C212.1 32 231.1 41.5 243.2 57.6L262.4 83.2C268.4 91.3 277.9 96 288 96H448C483.3 96 512 124.7 512 160V416ZM232 376C232 389.3 242.7 400 256 400C269.3 400 280 389.3 280 376V312H344C357.3 312 368 301.3 368 288C368 274.7 357.3 264 344 264H280V200C280 186.7 269.3 176 256 176C242.7 176 232 186.7 232 200V264H168C154.7 264 144 274.7 144 288C144 301.3 154.7 312 168 312H232V376Z" fill="white"/>
</svg>
