<svg width="448" height="512" viewBox="0 0 448 512" fill="none" xmlns="http://www.w3.org/2000/svg">
<path d="M64 32C28.7 32 0 60.7 0 96V416C0 451.3 28.7 480 64 480H384C419.3 480 448 451.3 448 416V96C448 60.7 419.3 32 384 32H64ZM200 344V280H136C122.7 280 112 269.3 112 256C112 242.7 122.7 232 136 232H200V168C200 154.7 210.7 144 224 144C237.3 144 248 154.7 248 168V232H312C325.3 232 336 242.7 336 256C336 269.3 325.3 280 312 280H248V344C248 357.3 237.3 368 224 368C210.7 368 200 357.3 200 344Z" fill="white"/>
</svg>
